<svg width="144" height="22" fill="none" xmlns="http://www.w3.org/2000/svg"><path d="M.418 5.478H3.85v11.836H.418V5.478zm1.716-1.65c-.63 0-1.144-.183-1.54-.55A1.784 1.784 0 010 1.914C0 1.371.198.917.594.55.99.183 1.504 0 2.134 0s1.144.176 1.54.528c.396.352.594.792.594 1.32 0 .572-.198 1.049-.594 1.43-.396.367-.91.55-1.54.55zm11.809-1.914c1.364 0 2.545.227 3.542.682 1.012.455 1.79 1.1 2.332 1.936.543.836.814 1.826.814 2.97 0 1.13-.271 2.12-.814 2.97-.543.836-1.32 1.481-2.332 1.936-.997.44-2.178.66-3.542.66h-3.102v4.246H7.277v-15.4h6.666zm-.198 8.25c1.07 0 1.885-.227 2.442-.682.557-.47.836-1.13.836-1.98 0-.865-.279-1.525-.836-1.98-.557-.47-1.371-.704-2.442-.704h-2.904v5.346h2.904zM26.212 7.04c.41-.572.96-1.005 1.65-1.298.704-.293 1.51-.44 2.42-.44V8.47c-.382-.03-.638-.044-.77-.044-.983 0-1.753.279-2.31.836-.558.543-.836 1.364-.836 2.464v5.588h-3.432V5.478h3.278V7.04zm11.635 10.45c-1.247 0-2.369-.257-3.366-.77a5.902 5.902 0 01-2.31-2.178c-.558-.924-.836-1.973-.836-3.146 0-1.173.278-2.222.836-3.146a5.747 5.747 0 012.31-2.156c.997-.528 2.12-.792 3.366-.792s2.361.264 3.344.792A5.748 5.748 0 0143.5 8.25c.557.924.836 1.973.836 3.146 0 1.173-.279 2.222-.836 3.146a5.903 5.903 0 01-2.31 2.178c-.983.513-2.098.77-3.344.77zm0-2.816c.88 0 1.599-.293 2.156-.88.572-.601.858-1.4.858-2.398 0-.997-.286-1.79-.858-2.376-.557-.601-1.276-.902-2.156-.902-.88 0-1.606.3-2.178.902-.572.587-.858 1.379-.858 2.376 0 .997.286 1.797.858 2.398.572.587 1.298.88 2.178.88zm15.943 2.64l-2.596-3.63-2.684 3.63h-3.74l4.554-5.962-4.4-5.874h3.85l2.508 3.454 2.574-3.454h3.652l-4.4 5.786 4.576 6.05H53.79z" fill="#67CDAA"/><path d="M70.432 5.478L65.086 18.04c-.543 1.364-1.218 2.325-2.024 2.882-.792.557-1.753.836-2.882.836a6.008 6.008 0 01-1.826-.286c-.602-.19-1.093-.455-1.474-.792l1.254-2.442a2.965 2.965 0 001.936.748c.469 0 .85-.117 1.144-.352.293-.22.557-.594.792-1.122l.044-.11-5.126-11.924h3.542l3.322 8.03 3.344-8.03h3.3z" fill="#67CDAA"/><path d="M82.37 17.424c-1.114 0-2.119-.25-3.013-.748a5.614 5.614 0 01-2.112-2.112c-.514-.895-.77-1.907-.77-3.036 0-1.13.256-2.141.77-3.036a5.456 5.456 0 012.112-2.09c.894-.499 1.899-.748 3.014-.748 1.114 0 2.119.25 3.014.748a5.305 5.305 0 012.09 2.09c.513.895.77 1.907.77 3.036 0 1.13-.257 2.141-.77 3.036a5.456 5.456 0 01-2.09 2.112c-.895.499-1.9.748-3.014.748zm0-1.386c.822 0 1.555-.183 2.2-.55a3.964 3.964 0 001.54-1.606c.367-.69.55-1.474.55-2.354 0-.88-.183-1.665-.55-2.354a3.82 3.82 0 00-1.54-1.584c-.645-.381-1.378-.572-2.2-.572-.82 0-1.561.19-2.221.572a4.004 4.004 0 00-1.54 1.584c-.367.69-.55 1.474-.55 2.354 0 .88.183 1.665.55 2.354.38.69.894 1.225 1.54 1.606.66.367 1.4.55 2.222.55zM97.33 5.654c1.452 0 2.603.425 3.454 1.276.865.836 1.298 2.06 1.298 3.674v6.71h-1.562v-6.556c0-1.203-.301-2.12-.902-2.75-.602-.63-1.46-.946-2.574-.946-1.247 0-2.237.374-2.97 1.122-.72.733-1.078 1.753-1.078 3.058v6.072h-1.562V5.742h1.496v2.134a4.287 4.287 0 011.76-1.628c.762-.396 1.642-.594 2.64-.594zM106.322.99h1.562v16.324h-1.562V.99zm5.908 4.752h1.562v11.572h-1.562V5.742zm.792-2.53c-.322 0-.594-.11-.814-.33a1.08 1.08 0 01-.33-.792c0-.293.11-.55.33-.77.22-.22.492-.33.814-.33.323 0 .594.11.814.33.22.205.33.455.33.748 0 .323-.11.594-.33.814-.22.22-.491.33-.814.33zm11.013 2.442c1.452 0 2.603.425 3.454 1.276.865.836 1.298 2.06 1.298 3.674v6.71h-1.562v-6.556c0-1.203-.301-2.12-.902-2.75-.602-.63-1.46-.946-2.574-.946-1.247 0-2.237.374-2.97 1.122-.719.733-1.078 1.753-1.078 3.058v6.072h-1.562V5.742h1.496v2.134a4.285 4.285 0 011.76-1.628c.762-.396 1.642-.594 2.64-.594zm19.111 6.358h-9.68c.088 1.203.55 2.178 1.386 2.926.836.733 1.892 1.1 3.168 1.1.719 0 1.379-.125 1.98-.374a4.437 4.437 0 001.562-1.144l.88 1.012a4.933 4.933 0 01-1.936 1.408c-.762.323-1.606.484-2.53.484-1.188 0-2.244-.25-3.168-.748a5.577 5.577 0 01-2.134-2.112c-.513-.895-.77-1.907-.77-3.036 0-1.13.242-2.141.726-3.036a5.446 5.446 0 012.024-2.09c.866-.499 1.834-.748 2.904-.748 1.071 0 2.032.25 2.882.748a5.281 5.281 0 012.002 2.09c.484.88.726 1.892.726 3.036l-.022.484zm-5.588-5.016c-1.114 0-2.053.36-2.816 1.078-.748.704-1.173 1.628-1.276 2.772h8.206c-.102-1.144-.535-2.068-1.298-2.772-.748-.719-1.686-1.078-2.816-1.078zM73 17a.966.966 0 01-.711-.289.979.979 0 01-.289-.721c0-.296.096-.533.289-.712A.985.985 0 0173 15c.282 0 .519.093.711.278.193.179.289.416.289.712a.976.976 0 01-.289.721A.966.966 0 0173 17z" fill="#244EB2"/></svg>